<?xml version="1.0" standalone="no"?>
<!DOCTYPE svg PUBLIC "-//W3C//DTD SVG 20010904//EN"
 "http://www.w3.org/TR/2001/REC-SVG-20010904/DTD/svg10.dtd">
<svg version="1.0" xmlns="http://www.w3.org/2000/svg"
 width="1920.000000pt" height="1920.000000pt" viewBox="0 0 1920.000000 1920.000000"
 preserveAspectRatio="xMidYMid meet">
<metadata>
Created by potrace 1.11, written by Peter Selinger 2001-2013
</metadata>
<g transform="translate(0.000000,1920.000000) scale(0.100000,-0.100000)"
fill="#000000" stroke="none">
<path d="M16052 14470 c-33 -20 -98 -108 -161 -217 -22 -40 -60 -106 -83 -145
-69 -122 -226 -271 -428 -410 -129 -88 -216 -135 -475 -253 -240 -110 -301
-146 -345 -207 -42 -57 -43 -67 -20 -156 11 -44 20 -85 20 -91 0 -19 -63 -11
-147 18 -87 31 -132 38 -488 72 -147 15 -255 20 -325 16 -194 -10 -536 -98
-717 -186 -117 -57 -176 -97 -273 -186 -47 -43 -179 -158 -295 -255 -115 -98
-257 -221 -315 -274 -170 -157 -197 -171 -645 -337 -121 -44 -308 -121 -415
-169 -295 -133 -357 -150 -570 -161 -233 -11 -629 -10 -760 1 -58 5 -258 14
-445 20 -538 16 -597 23 -1090 119 -434 85 -440 86 -775 86 -241 0 -320 -4
-430 -20 -192 -28 -433 -26 -553 3 -108 27 -210 73 -309 141 -42 28 -105 65
-141 81 -304 138 -792 101 -1182 -90 -354 -173 -862 -510 -1285 -853 -274
-222 -425 -276 -880 -312 -108 -8 -250 -15 -316 -15 -86 0 -142 -5 -195 -19
-50 -13 -129 -21 -250 -26 -175 -7 -176 -7 -310 26 -140 34 -189 38 -276 24
-47 -7 -56 -5 -107 24 -59 34 -147 55 -236 55 -50 1 -55 -1 -58 -22 -5 -30 12
-48 70 -78 53 -27 56 -36 30 -76 -22 -34 -47 -52 -154 -117 -95 -56 -138 -99
-138 -137 0 -22 4 -24 46 -24 25 0 91 11 146 26 55 14 116 24 135 22 l35 -3
-21 -27 c-30 -38 -130 -84 -236 -109 -49 -11 -106 -29 -126 -40 -62 -31 -194
-136 -207 -164 -42 -91 33 -178 177 -205 80 -15 275 -12 356 6 39 8 133 28
210 44 292 60 438 104 560 170 91 50 172 73 385 110 244 43 252 45 602 186
610 245 713 301 1121 606 111 83 248 182 305 220 109 72 428 237 597 308 390
166 714 201 1000 109 84 -27 185 -86 185 -108 0 -12 -97 -87 -265 -206 -178
-126 -308 -255 -387 -384 -94 -153 -133 -268 -201 -591 -51 -243 -61 -304 -64
-417 -8 -231 62 -637 185 -1074 38 -135 75 -279 82 -320 6 -41 21 -110 32
-154 11 -44 21 -114 22 -155 0 -71 -2 -80 -53 -184 -147 -298 -306 -451 -582
-562 -266 -107 -279 -120 -358 -374 -47 -149 -139 -380 -178 -450 -14 -25 -52
-81 -83 -125 -32 -45 -99 -149 -148 -233 -117 -196 -168 -262 -257 -327 -77
-57 -105 -102 -105 -168 0 -17 -7 -57 -15 -87 -31 -116 -13 -159 75 -179 51
-11 86 -47 96 -97 4 -24 -2 -45 -27 -89 -28 -50 -32 -67 -32 -130 0 -59 5 -83
30 -138 58 -123 131 -148 379 -128 112 9 186 10 250 3 105 -11 175 -3 204 23
45 40 11 104 -131 251 -115 120 -167 191 -192 265 -20 59 -11 102 49 221 25
50 59 129 76 176 122 346 333 628 565 755 48 27 83 55 113 93 63 80 202 209
249 233 47 25 81 26 120 6 34 -17 110 -100 161 -176 25 -36 69 -78 127 -121
48 -37 150 -128 227 -204 224 -223 370 -401 482 -589 67 -113 91 -174 104
-265 17 -120 41 -134 124 -75 111 79 206 25 206 -118 0 -71 46 -149 115 -196
l50 -33 155 5 c167 6 335 30 388 54 26 12 32 21 32 46 0 48 -90 159 -176 217
-58 39 -200 157 -250 207 -21 22 -47 71 -78 149 -57 145 -84 178 -369 461
-303 299 -415 446 -453 592 -39 153 -8 194 321 442 178 134 249 198 423 384
206 220 302 313 477 460 169 142 229 185 259 185 12 0 48 -23 81 -52 33 -28
118 -89 188 -135 71 -46 172 -116 225 -157 53 -40 171 -124 262 -186 271 -187
389 -279 501 -390 82 -81 113 -121 139 -173 56 -114 51 -217 -15 -357 -19 -39
-35 -80 -35 -91 0 -27 47 -54 95 -54 62 0 103 41 222 219 211 317 323 391 658
433 194 25 621 25 749 1 49 -10 91 -20 94 -23 10 -9 -39 -108 -118 -240 -96
-159 -121 -215 -145 -315 -38 -162 -69 -245 -153 -417 -49 -98 -101 -209 -117
-248 -16 -38 -40 -85 -53 -103 -17 -22 -27 -53 -32 -95 -4 -34 -19 -88 -35
-120 -23 -49 -25 -63 -16 -83 14 -32 51 -45 93 -33 54 15 85 11 102 -13 22
-32 20 -68 -9 -130 -38 -82 -35 -94 51 -192 98 -113 166 -167 202 -161 135 22
220 27 334 21 147 -8 194 1 204 40 13 51 -81 164 -257 311 -89 74 -129 124
-129 162 0 12 10 41 23 64 20 38 22 56 23 197 1 136 4 162 23 213 32 83 103
183 231 327 115 129 142 170 155 230 16 76 79 179 160 261 131 133 218 143
640 78 248 -38 299 -43 450 -43 132 0 185 4 235 17 201 56 410 171 555 308
102 96 122 103 216 75 167 -51 186 -107 81 -231 -100 -119 -233 -179 -342
-156 -28 6 -73 22 -100 36 -102 52 -133 23 -107 -99 29 -130 0 -130 -110 2
-89 106 -145 96 -487 -88 -65 -36 -139 -83 -163 -105 -38 -34 -46 -47 -50 -86
-5 -41 -2 -48 21 -67 15 -11 48 -28 74 -37 26 -9 59 -23 73 -31 15 -7 71 -20
125 -28 55 -8 121 -24 148 -36 46 -21 58 -22 145 -15 181 15 186 14 302 -47
57 -30 119 -58 138 -62 102 -19 197 51 511 379 74 77 179 172 255 232 134 103
225 191 262 253 36 60 56 147 50 216 -11 116 -56 176 -247 326 -150 117 -186
171 -178 263 4 42 17 71 73 160 123 196 185 351 250 620 44 184 62 230 193
490 61 121 135 277 165 346 63 148 164 333 278 514 45 72 106 172 136 222 30
51 68 107 84 124 29 31 31 32 92 25 149 -15 398 -18 522 -7 255 23 335 62 465
231 73 94 118 127 191 140 67 12 122 3 262 -44 120 -41 195 -51 258 -37 25 6
112 42 192 81 113 55 161 84 209 128 71 66 123 142 139 204 20 72 -3 106 -273
414 -134 154 -278 320 -320 369 -97 116 -201 215 -308 295 -112 83 -190 149
-190 160 0 5 38 39 85 75 232 182 388 471 470 877 20 96 14 142 -21 165 -34
22 -50 5 -64 -67 -17 -91 -48 -180 -101 -285 -131 -263 -383 -495 -540 -495
-56 0 -86 15 -150 74 -32 30 -86 71 -121 92 -225 136 -409 268 -408 292 1 4
21 23 46 42 77 60 257 251 330 350 91 123 243 374 293 481 45 99 61 158 61
231 0 99 -16 119 -68 88z"/>
</g>
</svg>
